<svg xmlns="http://www.w3.org/2000/svg" viewBox="0 0 24 30" fill="none" x="0px" y="0px"><path fill-rule="evenodd" clip-rule="evenodd" d="M3 2C2.44772 2 2 2.44772 2 3V10H0V3C0 1.34315 1.34315 0 3 0H9V2H3Z" fill="black"/><path fill-rule="evenodd" clip-rule="evenodd" d="M24 16V21C24 22.6569 22.6569 24 21 24H15V22H21C21.5523 22 22 21.5523 22 21V16H24Z" fill="black"/><path fill-rule="evenodd" clip-rule="evenodd" d="M5.34004 14.0606L4.3764 14.7532V13.4545C4.3764 12.8485 3.63514 12.8485 3.63514 13.4545V14.7532L2.6715 14.0606C2.22674 13.8009 1.85611 14.5801 2.30087 14.8398L3.26451 15.5325L2.30087 16.1385C1.85611 16.4848 2.22674 17.2641 2.6715 16.9177L3.63514 16.3117V17.6104C3.63514 18.1299 4.3764 18.1299 4.3764 17.6104V16.3117L5.34004 16.9177C5.7848 17.2641 6.15543 16.4848 5.71067 16.1385L4.74703 15.5325L5.71067 14.8398C6.15543 14.5801 5.7848 13.8009 5.34004 14.0606Z" fill="black"/><path fill-rule="evenodd" clip-rule="evenodd" d="M2.21573 20H5.45167C5.61346 20 5.6674 19.874 5.6674 19.748V19.1811C5.6674 19.0551 5.61346 18.9291 5.45167 18.9291H2.21573C2.10786 18.9291 2 19.0551 2 19.1811V19.748C2 19.874 2.10786 20 2.21573 20Z" fill="black"/><path fill-rule="evenodd" clip-rule="evenodd" d="M10.34 14.0606L9.3764 14.7532V13.4545C9.3764 12.8485 8.63514 12.8485 8.63514 13.4545V14.7532L7.6715 14.0606C7.22674 13.8009 6.85611 14.5801 7.30087 14.8398L8.26451 15.5325L7.30087 16.1385C6.85611 16.4848 7.22674 17.2641 7.6715 16.9177L8.63514 16.3117V17.6104C8.63514 18.1299 9.3764 18.1299 9.3764 17.6104V16.3117L10.34 16.9177C10.7848 17.2641 11.1554 16.4848 10.7107 16.1385L9.74703 15.5325L10.7107 14.8398C11.1554 14.5801 10.7848 13.8009 10.34 14.0606Z" fill="black"/><path fill-rule="evenodd" clip-rule="evenodd" d="M15.2399 14.0606L14.2763 14.7532V13.4545C14.2763 12.8485 13.535 12.8485 13.535 13.4545V14.7532L12.5714 14.0606C12.1266 13.8009 11.756 14.5801 12.2008 14.8398L13.1644 15.5325L12.2008 16.1385C11.756 16.4848 12.1266 17.2641 12.5714 16.9177L13.535 16.3117V17.6104C13.535 18.1299 14.2763 18.1299 14.2763 17.6104V16.3117L15.2399 16.9177C15.6847 17.2641 16.0553 16.4848 15.6106 16.1385L14.6469 15.5325L15.6106 14.8398C16.0553 14.5801 15.6847 13.8009 15.2399 14.0606Z" fill="black"/><path fill-rule="evenodd" clip-rule="evenodd" d="M7.39298 20H10.6289C10.7368 20 10.8446 19.874 10.8446 19.748V19.1811C10.8446 19.0551 10.7368 18.9291 10.6289 18.9291H7.39298C7.28511 18.9291 7.17725 19.0551 7.17725 19.1811V19.748C7.17725 19.874 7.28511 20 7.39298 20Z" fill="black"/><path fill-rule="evenodd" clip-rule="evenodd" d="M12.5168 20H15.8067C15.9145 20 16.0224 19.874 16.0224 19.748V19.1811C16.0224 19.0551 15.9145 18.9291 15.8067 18.9291H12.5168C12.4089 18.9291 12.355 19.0551 12.355 19.1811V19.748C12.355 19.874 12.4089 20 12.5168 20Z" fill="black"/><path fill-rule="evenodd" clip-rule="evenodd" d="M17.6945 20H20.9844C21.0922 20 21.2001 19.874 21.2001 19.748V19.1811C21.2001 19.0551 21.0922 18.9291 20.9844 18.9291H17.6945C17.5866 18.9291 17.4788 19.0551 17.4788 19.1811V19.748C17.4788 19.874 17.5866 20 17.6945 20Z" fill="black"/><path fill-rule="evenodd" clip-rule="evenodd" d="M20.7104 0.354858L23.9818 1.59905L19.9801 12.121L17.2121 14.6121L16.7065 10.8827L20.7104 0.354858ZM21.2896 1.64502L21.085 2.18317L22.487 2.7164L22.6917 2.17825L21.2896 1.64502ZM22.1315 3.65108L20.7295 3.11786L17.8641 10.652L19.2661 11.1852L22.1315 3.65108ZM18.6125 12.0065L17.8275 11.7079L17.9489 12.6036L18.6125 12.0065Z" fill="black"/><text x="0" y="39" fill="#000000" font-size="5px" font-weight="bold" font-family="'Helvetica Neue', Helvetica, Arial-Unicode, Arial, Sans-serif">Created by PCH</text><text x="0" y="44" fill="#000000" font-size="5px" font-weight="bold" font-family="'Helvetica Neue', Helvetica, Arial-Unicode, Arial, Sans-serif">from the Noun Project</text></svg>